<?xml version="1.0" standalone="no"?>
<!DOCTYPE svg PUBLIC "-//W3C//DTD SVG 20010904//EN"
 "http://www.w3.org/TR/2001/REC-SVG-20010904/DTD/svg10.dtd">
<svg version="1.0" xmlns="http://www.w3.org/2000/svg"
 width="225.000000pt" height="225.000000pt" viewBox="0 0 225.000000 225.000000"
 preserveAspectRatio="xMidYMid meet">

<g transform="translate(0.000000,225.000000) scale(0.100000,-0.100000)"
fill="#000000" stroke="none">
<path d="M160 2237 c-48 -15 -113 -83 -128 -133 -17 -60 -17 -1898 0 -1958 16
-53 81 -118 134 -134 60 -17 1858 -17 1918 0 53 16 118 81 134 134 17 60 17
1898 0 1958 -16 53 -81 118 -134 134 -56 16 -1871 16 -1924 -1z m1725 -244
c50 -27 80 -58 100 -105 13 -33 15 -131 15 -766 l0 -728 -22 -44 c-32 -61 -81
-98 -150 -110 -37 -7 -294 -10 -740 -8 -677 3 -683 3 -723 25 -50 27 -80 58
-100 105 -13 33 -15 131 -15 763 0 632 2 730 15 763 28 65 81 107 155 123 19
4 348 6 730 6 691 -2 695 -2 735 -24z"/>
<path d="M401 1917 c-13 -6 -34 -25 -45 -40 -21 -28 -21 -33 -21 -752 0 -719
0 -724 21 -752 11 -15 32 -34 45 -40 35 -18 1413 -18 1448 0 13 6 34 25 45 40
21 28 21 33 21 752 0 719 0 724 -21 752 -11 15 -32 34 -45 40 -18 10 -188 13
-724 13 -536 0 -706 -3 -724 -13z m784 -315 c127 -98 230 -182 230 -187 -1 -9
-97 -86 -353 -282 -143 -109 -151 -105 -89 49 l45 113 -261 3 c-172 1 -265 6
-274 13 -16 14 -19 194 -3 204 6 3 130 6 276 5 212 0 265 2 261 12 -2 7 -23
61 -46 120 -38 97 -44 129 -23 128 4 0 111 -80 237 -178z"/>
</g>
</svg>
