<?xml version="1.0" standalone="no"?>
<!DOCTYPE svg PUBLIC "-//W3C//DTD SVG 20010904//EN"
 "http://www.w3.org/TR/2001/REC-SVG-20010904/DTD/svg10.dtd">
<svg version="1.0" xmlns="http://www.w3.org/2000/svg"
 width="539.000000pt" height="511.000000pt" viewBox="0 0 539.000000 511.000000"
 preserveAspectRatio="xMidYMid meet">

<g transform="translate(0.000000,511.000000) scale(0.100000,-0.100000)"
fill="#000000" stroke="none">
<path d="M696 4904 c-180 -28 -340 -146 -441 -324 -49 -88 -54 -103 -64 -192
-15 -135 -15 -3591 0 -3726 10 -89 15 -104 64 -192 68 -120 149 -201 265 -263
151 -81 29 -77 2170 -77 2136 0 2020 -4 2164 75 105 57 217 169 279 280 34 62
50 104 66 184 21 103 21 111 21 1856 0 1745 0 1753 -21 1856 -16 80 -32 122
-66 184 -62 111 -174 223 -279 280 -145 79 -26 75 -2176 74 -1561 -1 -1909 -4
-1982 -15z m3965 -29 c85 -13 115 -23 183 -60 167 -91 286 -254 325 -444 21
-103 21 -111 21 -1846 0 -1734 0 -1743 -21 -1846 -17 -82 -31 -121 -70 -189
-26 -47 -57 -94 -69 -105 -20 -18 -21 -18 -43 2 -12 11 -168 143 -347 293
-179 150 -334 281 -345 291 -19 18 -19 19 7 46 14 16 42 60 62 100 67 135 66
107 66 1635 0 1518 2 1460 -68 1631 -34 81 -44 95 -118 163 -100 91 -206 143
-355 173 -100 21 -125 21 -1274 21 -1119 0 -1177 -1 -1266 -19 -133 -28 -253
-86 -349 -169 -72 -61 -82 -75 -124 -167 -80 -172 -76 -92 -76 -1633 0 -1562
-3 -1505 76 -1643 25 -44 59 -93 77 -108 l31 -28 -298 -312 c-164 -171 -301
-311 -305 -311 -15 0 -50 48 -99 135 -46 82 -51 99 -61 187 -15 135 -15 3571
0 3706 10 89 15 104 64 192 66 117 132 182 246 244 146 78 20 74 2147 75 1638
1 1895 -1 1983 -14z m-781 -186 c143 -29 265 -88 351 -171 56 -53 72 -76 102
-148 69 -166 67 -114 67 -1618 0 -1528 2 -1490 -69 -1630 -49 -96 -142 -189
-261 -260 -79 -47 -92 -51 -182 -61 -134 -15 -2402 -15 -2535 0 -91 10 -103
14 -188 65 -111 66 -209 163 -264 261 -73 129 -71 88 -71 1625 0 1526 -3 1455
74 1621 37 80 52 100 113 154 85 75 210 136 333 163 79 17 163 18 1256 19
1152 1 1173 1 1274 -20z m868 -4138 l243 -204 -33 -34 c-18 -19 -70 -54 -114
-78 -144 -79 -30 -75 -2154 -75 -2130 0 -2009 -4 -2160 77 -47 25 -95 55 -107
66 l-22 20 301 314 301 314 36 -34 c20 -19 74 -57 121 -85 79 -47 92 -51 182
-61 134 -15 2422 -15 2555 0 91 10 103 14 188 65 50 30 108 72 129 93 l39 40
126 -107 c69 -59 235 -199 369 -311z"/>
<path d="M1490 3280 l0 -590 440 0 440 0 0 70 0 70 -360 0 -360 0 0 200 0 200
325 0 325 0 0 70 0 70 -325 0 -325 0 0 180 0 180 345 0 345 0 0 70 0 70 -425
0 -425 0 0 -590z"/>
</g>
</svg>
