<?xml version="1.0" standalone="no"?>
<!DOCTYPE svg PUBLIC "-//W3C//DTD SVG 20010904//EN"
 "http://www.w3.org/TR/2001/REC-SVG-20010904/DTD/svg10.dtd">
<svg version="1.0" xmlns="http://www.w3.org/2000/svg"
 width="548.000000pt" height="522.000000pt" viewBox="0 0 548.000000 522.000000"
 preserveAspectRatio="xMidYMid meet">

<g transform="translate(0.000000,522.000000) scale(0.100000,-0.100000)"
fill="#000000" stroke="none">
<path d="M770 4994 c-62 -11 -109 -27 -175 -60 -122 -63 -199 -139 -270 -267
-91 -165 -85 -27 -85 -2062 0 -2027 -5 -1898 82 -2057 28 -51 62 -104 75 -119
12 -14 23 -30 23 -37 0 -7 6 -12 14 -12 8 0 27 -15 43 -33 43 -48 189 -114
307 -137 96 -20 145 -20 1971 -20 1824 0 1875 1 1968 20 208 42 367 161 470
350 l52 95 0 1950 0 1950 -52 95 c-66 122 -161 217 -283 283 -151 82 -20 77
-2167 76 -1582 -1 -1902 -3 -1973 -15z m3958 -30 c77 -12 112 -24 172 -56 107
-59 209 -161 268 -267 l47 -86 0 -1950 0 -1950 -47 -85 c-26 -48 -59 -97 -72
-109 l-25 -24 -43 35 c-24 19 -194 159 -380 310 l-336 275 23 24 c13 13 44 60
69 104 35 62 50 103 66 179 19 96 20 133 20 1467 0 1562 6 1448 -89 1637 -41
80 -62 110 -127 172 -96 92 -191 140 -338 170 -95 19 -132 20 -1267 20 -1135
0 -1172 -1 -1262 -20 -50 -11 -135 -39 -187 -62 -134 -58 -201 -124 -269 -265
-85 -175 -81 -84 -81 -1653 0 -1568 -3 -1499 77 -1655 25 -49 57 -103 71 -118
l26 -28 -301 -301 c-349 -349 -308 -331 -393 -173 -85 157 -80 29 -80 2050 0
2011 -4 1894 77 2045 92 171 244 284 426 314 68 12 413 14 1970 15 1668 1
1898 -1 1985 -15z m-787 -185 c144 -30 233 -76 326 -171 85 -87 143 -196 173
-323 19 -83 20 -123 20 -1454 0 -1336 0 -1371 -20 -1467 -15 -74 -31 -116 -61
-169 -56 -95 -176 -215 -269 -270 -67 -39 -85 -45 -172 -54 -130 -15 -2408
-15 -2533 -1 -76 9 -101 17 -175 57 -119 64 -200 144 -256 255 -77 153 -74 87
-74 1648 0 1557 -4 1479 76 1643 81 168 194 250 414 303 l95 22 1176 1 c1160
1 1178 1 1280 -20z m735 -4056 l375 -307 -38 -39 c-55 -57 -175 -114 -289
-137 -94 -19 -145 -20 -1969 -20 -1827 0 -1875 0 -1971 20 -118 23 -244 80
-290 130 l-33 35 302 302 301 303 31 -29 c16 -15 72 -51 123 -79 84 -46 102
-52 187 -62 129 -14 2401 -14 2533 1 88 9 105 15 180 57 45 26 101 66 124 90
23 23 46 42 50 42 5 0 177 -138 384 -307z"/>
<path d="M1560 3548 c1 -415 8 -499 48 -591 27 -61 95 -133 155 -164 133 -67
377 -69 503 -5 63 32 131 99 159 156 47 97 54 175 55 604 l0 392 -80 0 -80 0
0 -377 c0 -215 -5 -406 -11 -443 -24 -150 -102 -217 -261 -227 -119 -8 -188
13 -248 75 -73 76 -73 74 -77 550 l-4 422 -80 0 -79 0 0 -392z"/>
</g>
</svg>
