<?xml version="1.0" standalone="no"?>
<!DOCTYPE svg PUBLIC "-//W3C//DTD SVG 20010904//EN"
 "http://www.w3.org/TR/2001/REC-SVG-20010904/DTD/svg10.dtd">
<svg version="1.0" xmlns="http://www.w3.org/2000/svg"
 width="546.000000pt" height="516.000000pt" viewBox="0 0 546.000000 516.000000"
 preserveAspectRatio="xMidYMid meet">

<g transform="translate(0.000000,516.000000) scale(0.100000,-0.100000)"
fill="#000000" stroke="none">
<path d="M775 4969 c-208 -43 -347 -146 -451 -334 -46 -84 -54 -106 -63 -183
-15 -120 -15 -3595 0 -3727 9 -88 14 -101 65 -187 30 -51 80 -119 111 -150 76
-76 203 -139 344 -167 101 -21 115 -21 1979 -21 1844 0 1880 0 1976 20 147 30
255 85 344 175 45 44 91 104 121 156 84 146 79 26 79 2041 0 2014 6 1874 -83
2038 -103 193 -242 295 -461 340 -97 20 -129 20 -1985 19 -1801 -1 -1890 -2
-1976 -20z m3966 -30 c202 -41 333 -139 431 -319 83 -152 78 -27 78 -2028 0
-2004 4 -1897 -75 -2033 -25 -41 -56 -86 -70 -99 l-24 -23 -371 298 c-203 163
-370 301 -370 305 0 4 10 15 21 26 12 10 41 58 65 105 77 154 74 93 74 1641 0
1556 4 1470 -80 1638 -43 85 -59 106 -124 163 -41 36 -112 86 -158 110 -144
79 -104 77 -1454 77 -1356 0 -1314 2 -1456 -78 -46 -26 -119 -76 -163 -112
-77 -62 -83 -69 -122 -160 -76 -172 -73 -104 -73 -1640 0 -1545 -2 -1487 72
-1644 24 -50 56 -101 71 -115 l28 -26 -300 -299 c-346 -346 -304 -327 -390
-177 -45 78 -51 97 -61 177 -14 125 -14 3609 1 3724 8 71 18 99 57 172 96 177
230 276 427 317 86 18 174 19 1976 20 1884 1 1886 1 1990 -20z m-783 -185
c118 -19 207 -64 319 -161 62 -55 81 -79 118 -153 78 -156 75 -84 75 -1628 0
-1537 2 -1489 -70 -1632 -32 -64 -54 -91 -117 -147 -43 -37 -112 -89 -153
-115 -69 -43 -83 -47 -172 -57 -130 -15 -2427 -15 -2553 -1 -81 10 -97 15
-165 58 -41 25 -111 76 -155 112 -71 58 -84 73 -117 145 -70 148 -68 105 -68
1635 0 1521 -2 1469 67 1630 35 79 43 89 118 150 44 36 114 85 156 108 131 72
90 70 1432 71 1033 1 1200 -1 1285 -15z m1070 -4372 c-52 -53 -168 -107 -287
-131 -104 -21 -109 -21 -1981 -21 -1863 0 -1878 0 -1979 21 -114 23 -252 83
-295 127 l-26 28 303 302 303 303 39 -34 c22 -18 77 -56 122 -84 77 -49 88
-52 177 -62 130 -15 2421 -15 2554 0 89 9 103 14 175 57 43 26 101 66 128 89
l50 43 375 -302 375 -301 -33 -35z"/>
<path d="M1933 3935 c-145 -32 -288 -145 -352 -278 -53 -110 -66 -177 -65
-327 0 -120 3 -144 28 -215 36 -107 79 -176 149 -241 133 -123 314 -170 495
-129 37 9 87 26 112 39 l44 22 61 -42 c59 -41 184 -108 190 -102 1 2 14 26 28
53 l25 50 -82 43 c-130 69 -126 62 -78 124 84 110 120 213 129 373 7 129 -14
241 -67 350 -107 223 -357 336 -617 280z m290 -158 c151 -69 237 -228 237
-437 0 -138 -47 -284 -110 -345 l-27 -26 -25 21 c-28 22 -166 90 -183 90 -5 0
-17 -25 -26 -56 -16 -51 -16 -56 0 -61 49 -17 121 -53 121 -62 0 -17 -111 -34
-183 -28 -126 11 -245 90 -300 199 -68 135 -75 345 -17 500 39 104 147 200
257 228 67 17 195 5 256 -23z"/>
</g>
</svg>
