<?xml version="1.0" standalone="no"?>
<!DOCTYPE svg PUBLIC "-//W3C//DTD SVG 20010904//EN"
 "http://www.w3.org/TR/2001/REC-SVG-20010904/DTD/svg10.dtd">
<svg version="1.0" xmlns="http://www.w3.org/2000/svg"
 width="556.000000pt" height="526.000000pt" viewBox="0 0 556.000000 526.000000"
 preserveAspectRatio="xMidYMid meet">

<g transform="translate(0.000000,526.000000) scale(0.100000,-0.100000)"
fill="#000000" stroke="none">
<path d="M800 5004 c-62 -11 -109 -27 -175 -60 -122 -63 -199 -139 -270 -267
-49 -90 -55 -107 -65 -193 -14 -129 -14 -3609 0 -3739 10 -85 16 -102 64 -190
106 -192 243 -292 460 -335 96 -20 145 -20 1976 -20 1844 0 1880 0 1976 20
219 45 358 147 462 340 87 163 82 32 82 2055 0 2008 4 1894 -77 2045 -65 122
-171 228 -284 285 -157 79 -30 75 -2171 74 -1587 -1 -1907 -3 -1978 -15z
m3966 -29 c137 -22 225 -69 325 -172 47 -48 92 -106 117 -153 75 -139 72 -41
72 -2035 0 -2009 4 -1894 -77 -2043 -25 -46 -55 -95 -67 -108 l-21 -23 -362
297 c-200 164 -368 303 -375 310 -9 9 -6 18 14 39 14 16 44 65 67 109 73 148
71 95 71 1641 0 1555 4 1475 -78 1647 -40 85 -56 107 -117 161 -94 84 -225
149 -352 175 -92 19 -141 20 -1268 20 -1154 0 -1174 0 -1276 -21 -130 -27
-230 -76 -342 -167 -81 -65 -84 -69 -125 -168 -75 -179 -72 -104 -72 -1644 0
-1556 -2 -1497 72 -1655 24 -49 46 -92 49 -95 3 -3 18 -15 34 -28 l29 -23
-304 -304 -304 -304 -24 22 c-13 12 -45 62 -72 112 -43 80 -51 103 -60 181
-14 122 -14 3616 0 3739 9 76 17 101 57 175 92 171 244 284 426 314 68 12 414
14 1975 15 1662 1 1904 -1 1988 -14z m-782 -185 c122 -25 239 -83 329 -163 55
-49 77 -77 111 -146 79 -157 76 -92 76 -1645 0 -1541 2 -1493 -70 -1636 -32
-64 -54 -91 -117 -147 -43 -37 -112 -89 -153 -115 -69 -43 -83 -47 -172 -57
-130 -15 -2427 -15 -2553 -1 -81 10 -97 15 -165 58 -41 25 -111 76 -155 112
-71 58 -84 73 -117 145 -70 148 -68 104 -68 1645 0 1528 -3 1466 67 1635 36
86 40 93 120 157 107 88 186 127 308 154 l100 22 1181 1 c1139 1 1185 0 1278
-19z m766 -4085 c168 -136 314 -256 325 -266 19 -19 19 -19 -15 -55 -54 -55
-169 -108 -289 -133 -104 -21 -109 -21 -1981 -21 -1836 0 -1880 0 -1976 20
-119 24 -247 81 -288 128 l-29 34 305 305 305 305 34 -29 c19 -16 71 -52 116
-80 77 -49 88 -52 177 -62 130 -15 2421 -15 2554 0 89 9 103 14 175 57 43 26
101 66 129 90 l50 43 52 -44 c28 -24 188 -155 356 -292z"/>
<path d="M1480 3948 c0 -2 69 -266 154 -588 l153 -585 86 -3 86 -3 11 43 c10
37 267 970 273 990 1 4 63 -227 137 -513 l135 -520 94 3 94 3 142 560 c78 308
145 572 148 588 l7 27 -83 0 -82 0 -114 -505 -115 -505 -27 133 c-14 72 -54
231 -87 352 -33 121 -74 274 -92 340 -17 66 -36 135 -41 153 l-11 32 -96 0
-97 0 -140 -507 c-96 -350 -141 -499 -145 -482 -4 13 -56 241 -116 507 l-108
482 -83 0 c-46 0 -83 -1 -83 -2z"/>
</g>
</svg>
